<svg width="76" height="16" viewBox="0 0 76 16" fill="none" xmlns="http://www.w3.org/2000/svg">
<g clip-path="url(#clip0_33_4)">
<path d="M4.82002 15V1.08001H7.96002V15H4.82002ZM0.400024 3.62001V0.880005H12.38V3.62001H0.400024ZM16.2092 15.22C15.2092 15.22 14.3026 15 13.4892 14.56C12.6892 14.1067 12.0559 13.4933 11.5892 12.72C11.1226 11.9467 10.8892 11.08 10.8892 10.12C10.8892 9.16001 11.1226 8.30001 11.5892 7.54001C12.0559 6.78001 12.6892 6.18001 13.4892 5.74001C14.2892 5.28668 15.1959 5.06001 16.2092 5.06001C17.2226 5.06001 18.1292 5.28001 18.9292 5.72001C19.7292 6.16001 20.3626 6.76668 20.8292 7.54001C21.2959 8.30001 21.5292 9.16001 21.5292 10.12C21.5292 11.08 21.2959 11.9467 20.8292 12.72C20.3626 13.4933 19.7292 14.1067 18.9292 14.56C18.1292 15 17.2226 15.22 16.2092 15.22ZM16.2092 12.44C16.6492 12.44 17.0359 12.3467 17.3692 12.16C17.7026 11.96 17.9559 11.6867 18.1292 11.34C18.3159 10.98 18.4092 10.5733 18.4092 10.12C18.4092 9.66668 18.3159 9.27334 18.1292 8.94001C17.9426 8.59334 17.6826 8.32668 17.3492 8.14001C17.0292 7.94001 16.6492 7.84001 16.2092 7.84001C15.7826 7.84001 15.4026 7.94001 15.0692 8.14001C14.7359 8.32668 14.4759 8.59334 14.2892 8.94001C14.1026 9.28668 14.0092 9.68668 14.0092 10.14C14.0092 10.58 14.1026 10.98 14.2892 11.34C14.4759 11.6867 14.7359 11.96 15.0692 12.16C15.4026 12.3467 15.7826 12.44 16.2092 12.44ZM23.0527 15V5.28001H26.1127V15H23.0527ZM29.2727 15V9.32001C29.2727 8.82668 29.1193 8.44668 28.8127 8.18001C28.5193 7.90001 28.1527 7.76001 27.7127 7.76001C27.406 7.76001 27.1327 7.82668 26.8927 7.96001C26.6527 8.08001 26.4593 8.25334 26.3127 8.48001C26.1793 8.70668 26.1127 8.98668 26.1127 9.32001L24.9327 8.80001C24.9327 8.02668 25.0993 7.36668 25.4327 6.82001C25.766 6.26001 26.2193 5.83334 26.7927 5.54001C27.366 5.23334 28.0127 5.08001 28.7327 5.08001C29.4127 5.08001 30.0193 5.23334 30.5527 5.54001C31.0993 5.84668 31.5327 6.27334 31.8527 6.82001C32.1727 7.36668 32.3327 8.02001 32.3327 8.78001V15H29.2727ZM35.4927 15V9.32001C35.4927 8.82668 35.3393 8.44668 35.0327 8.18001C34.7393 7.90001 34.3727 7.76001 33.9327 7.76001C33.626 7.76001 33.3527 7.82668 33.1127 7.96001C32.8727 8.08001 32.6793 8.25334 32.5327 8.48001C32.3993 8.70668 32.3327 8.98668 32.3327 9.32001L30.5727 9.08001C30.5993 8.25334 30.7927 7.54668 31.1527 6.96001C31.526 6.36001 32.0127 5.90001 32.6127 5.58001C33.226 5.24668 33.9127 5.08001 34.6727 5.08001C35.4193 5.08001 36.0793 5.24001 36.6527 5.56001C37.2393 5.86668 37.6993 6.31334 38.0327 6.90001C38.3793 7.47334 38.5527 8.16668 38.5527 8.98001V15H35.4927ZM44.5736 15.2C43.6803 15.2 42.8803 14.98 42.1736 14.54C41.4803 14.1 40.9269 13.5 40.5136 12.74C40.1136 11.98 39.9136 11.1133 39.9136 10.14C39.9136 9.16668 40.1136 8.30001 40.5136 7.54001C40.9269 6.78001 41.4803 6.18001 42.1736 5.74001C42.8803 5.30001 43.6803 5.08001 44.5736 5.08001C45.2269 5.08001 45.8136 5.20668 46.3336 5.46001C46.8669 5.71334 47.3003 6.06668 47.6336 6.52001C47.9669 6.96001 48.1536 7.46668 48.1936 8.04001V12.24C48.1536 12.8133 47.9669 13.3267 47.6336 13.78C47.3136 14.22 46.8869 14.5667 46.3536 14.82C45.8203 15.0733 45.2269 15.2 44.5736 15.2ZM45.1936 12.44C45.8469 12.44 46.3736 12.2267 46.7736 11.8C47.1736 11.36 47.3736 10.8067 47.3736 10.14C47.3736 9.68668 47.2803 9.28668 47.0936 8.94001C46.9203 8.59334 46.6669 8.32668 46.3336 8.14001C46.0136 7.94001 45.6403 7.84001 45.2136 7.84001C44.7869 7.84001 44.4069 7.94001 44.0736 8.14001C43.7536 8.32668 43.4936 8.59334 43.2936 8.94001C43.1069 9.28668 43.0136 9.68668 43.0136 10.14C43.0136 10.58 43.1069 10.9733 43.2936 11.32C43.4803 11.6667 43.7403 11.94 44.0736 12.14C44.4069 12.34 44.7803 12.44 45.1936 12.44ZM47.2536 15V12.38L47.7136 10.02L47.2536 7.66001V5.28001H50.2536V15H47.2536ZM53.7881 15V1.26001H56.8481V15H53.7881ZM51.5881 7.88001V5.28001H59.0481V7.88001H51.5881ZM64.8811 15.22C63.8811 15.22 62.9744 15 62.1611 14.56C61.3611 14.1067 60.7278 13.4933 60.2611 12.72C59.7944 11.9467 59.5611 11.08 59.5611 10.12C59.5611 9.16001 59.7944 8.30001 60.2611 7.54001C60.7278 6.78001 61.3611 6.18001 62.1611 5.74001C62.9611 5.28668 63.8678 5.06001 64.8811 5.06001C65.8944 5.06001 66.8011 5.28001 67.6011 5.72001C68.4011 6.16001 69.0344 6.76668 69.5011 7.54001C69.9678 8.30001 70.2011 9.16001 70.2011 10.12C70.2011 11.08 69.9678 11.9467 69.5011 12.72C69.0344 13.4933 68.4011 14.1067 67.6011 14.56C66.8011 15 65.8944 15.22 64.8811 15.22ZM64.8811 12.44C65.3211 12.44 65.7078 12.3467 66.0411 12.16C66.3744 11.96 66.6278 11.6867 66.8011 11.34C66.9878 10.98 67.0811 10.5733 67.0811 10.12C67.0811 9.66668 66.9878 9.27334 66.8011 8.94001C66.6144 8.59334 66.3544 8.32668 66.0211 8.14001C65.7011 7.94001 65.3211 7.84001 64.8811 7.84001C64.4544 7.84001 64.0744 7.94001 63.7411 8.14001C63.4078 8.32668 63.1478 8.59334 62.9611 8.94001C62.7744 9.28668 62.6811 9.68668 62.6811 10.14C62.6811 10.58 62.7744 10.98 62.9611 11.34C63.1478 11.6867 63.4078 11.96 63.7411 12.16C64.0744 12.3467 64.4544 12.44 64.8811 12.44ZM73.3906 15.22C72.8706 15.22 72.4373 15.04 72.0906 14.68C71.744 14.32 71.5706 13.8867 71.5706 13.38C71.5706 12.8467 71.744 12.4067 72.0906 12.06C72.4373 11.7 72.8706 11.52 73.3906 11.52C73.924 11.52 74.3573 11.7 74.6906 12.06C75.0373 12.4067 75.2106 12.8467 75.2106 13.38C75.2106 13.8867 75.0373 14.32 74.6906 14.68C74.3573 15.04 73.924 15.22 73.3906 15.22Z" fill="#FF6347"/>
</g>
<defs>
<clipPath id="clip0_33_4">
<rect width="76" height="16" fill="white"/>
</clipPath>
</defs>
</svg>
